/* XPM */
static char * Skeleton_RogueDL5_xpm[] = {
"64 64 15 1",
" 	c #0F1A1B",
".	c #162527",
"+	c #1D2E30",
"@	c #243A3C",
"#	c #141412",
"$	c #76222C",
"%	c #4B3720",
"&	c #411927",
"*	c #A53C2C",
"=	c #242A36",
"-	c #5C8EA5",
";	c #825E3A",
">	c #BD9168",
",	c #8AC6E0",
"'	c #3B535E",
"                                                                ",
"                                                                ",
"                                                                ",
"                                                                ",
"............    ....    ....    ............................    ",
"............    ....    ....    ............................    ",
"............    ....    ....    ............................    ",
"............    ....    ....    ............................    ",
"............    ....    ....    ............................    ",
"............    ....    ....    ............................    ",
"............    ....    ....    ............................    ",
"............    ....    ....    ............................    ",
"++++++++++++++++++++++++++++    ++++++++++++++++++++++++++++    ",
"++++++++++++++++++++++++++++    ++++++++++++++++++++++++++++    ",
"++++++++++++++++++++++++++++    ++++++++++++++++++++++++++++    ",
"++++++++++++++++++++++++++++    ++++++++++++++++++++++++++++    ",
"++++++++++++++++++++++++++++....++++++++++++++++++++++++++++....",
"++++++++++++++++++++++++++++....++++++++++++++++++++++++++++....",
"++++++++++++++++++++++++++++....++++++++++++++++++++++++++++....",
"++++++++++++++++++++++++++++....++++++++++++++++++++++++++++....",
"++++++++++++++++++++++++++++....++++++++++++++++++++++++++++....",
"++++++++++++++++++++++++++++....++++++++++++++++++++++++++++....",
"++++++++++++++++++++++++++++....++++++++++++++++++++++++++++....",
"++++++++++++++++++++++++++++....++++++++++++++++++++++++++++....",
"++++++++++++++++++++++++++++....++++++++++++++++++++++++++++....",
"++++++++++++++++++++++++++++....++++++++++++++++++++++++++++....",
"++++++++++++++++++++++++++++....++++++++++++++++++++++++++++....",
"++++++++++++++++++++++++++++....++++++++++++++++++++++++++++....",
"++++++++++++++++++++++++++++....@@@@@@@@@@@@@@@@@@@@@@@@@@@@....",
"++++++++++++++++++++++++++++....@@@@@@@@@@@@@@@@@@@@@@@@@@@@....",
"++++++++++++++++++++++++++++....@@@@@@@@@@@@@@@@@@@@@@@@@@@@....",
"++++++++++++++++++++++++++++....@@@@@@@@@@@@@@@@@@@@@@@@@@@@....",
"                                            ....................",
"                                            ....................",
"                                            ....................",
"                                            ....................",
"............................    ++++++++++++++++++++++++++++....",
"............................    ++++++++++++++++++++++++++++....",
"............................    ++++++++++++++++++++++++++++....",
"............................    ++++++++++++++++++++++++++++....",
"....++++++++++++++++++++++++    ++++++++++++++++++++++++++++....",
"....++++++++++++++++++++++++    ++++++++++++++++++++++++++++....",
"....++++++++++++++++++++++++    ++++++++++++++++++++++++++++....",
"....++++++++++++++++++++++++    ++++++++++++++++++++++++++++....",
"....++++++++++++++++++++++++    +++++++++++########+++++++++....",
"....++++++++++++++++++++++++    +++++++++++########+++++++++....",
"....+++++++++++######+++++++    +++++++####$$$$$$$$$$####+++....",
"....+++++++++++######+++++++    +++++++####$$$$$$$$$$####+++....",
"....+++++++++++##$$$$##+++++....+++####$$$$$$$$$$$$$$$$$$####...",
"....+++++++++++##$$$$##+++++....+++####$$$$$$$$$$$$$$$$$$####...",
"....+++++++++++##$$######+++....+########%%##&&$$$$**********##.",
"....+++++++++++##$$######+++....+########%%##&&$$$$**********##.",
"....+++++++++++##$$&&==--##+...&&&&####;;>>>>####$$************#",
"....+++++++++++##$$&&==--##+...&&&&####;;>>>>####$$************#",
"....+++++++++++####$$==--######&&&&;;;;>>####;;##**************#",
"....+++++++++++####$$==--######&&&&;;;;>>####;;##**************#",
"....+++++++++&&&&####,,,,,,##&&&&;;##>>######;;##**********$$**#",
"....+++++++++&&&&####,,,,,,##&&&&;;##>>######;;##**********$$**#",
"....+++++++&&&&&&####--,,,,,,&&&&####%%>>######$$**********####.",
"....+++++++&&&&&&####--,,,,,,&&&&####%%>>######$$**********####.",
".##########&&&&&&%%%%##--,,''======##>>>>;;##&&************##...",
".##########&&&&&&%%%%##--,,''======##>>>>;;##&&************##...",
"#>>>>>>;;####&&&&########$$##======&&&&>>####$$**********$$##...",
"#>>>>>>;;####&&&&########$$##======&&&&>>####$$**********$$##..."};
