/* XPM */
static char * Skeleton_RogueDR4_xpm[] = {
"64 64 15 1",
" 	c #0F1A1B",
".	c #162527",
"+	c #1D2E30",
"@	c #141412",
"#	c #243A3C",
"$	c #76222C",
"%	c #A53C2C",
"&	c #411927",
"*	c #4B3720",
"=	c #BD9168",
"-	c #825E3A",
";	c #8AC6E0",
">	c #5C8EA5",
",	c #242A36",
"'	c #3B535E",
"                                                                ",
"                                                                ",
"                                                                ",
"                                                                ",
"............    ....    ....    ............................    ",
"............    ....    ....    ............................    ",
"............    ....    ....    ............................    ",
"............    ....    ....    ............................    ",
"............    ....    ....    ............................    ",
"............    ....    ....    ............................    ",
"............    ....    ....    ............................    ",
"............    ....    ....    ............................    ",
"++++++++++++++++++++++++++++    ++++++++++++++++++++++++++++    ",
"++++++++++++++++++++++++++++    ++++++++++++++++++++++++++++    ",
"++++++++++++++++++++++++++++    ++++++++++++++++++++++++++++    ",
"++++++++++++++++++++++++++++    ++++++++++++++++++++++++++++    ",
"++++++++++++++++++++++++++++....++++++++++++++++++++++++++++....",
"++++++++++++++++++++++++++++....++++++++++++++++++++++++++++....",
"++++++++++++++++++++++++++++....++++++++++++++++++++++++++++....",
"++++++++++++++++++++++++++++....++++++++++++++++++++++++++++....",
"++++++++++++++++++++++++++++....++++++++++++++++++++++++++++....",
"++++++++++++++++++++++++++++....++++++++++++++++++++++++++++....",
"++++++++++++++++++++++++++++....++++++++++++++++++++++++++++....",
"++++++++++++++++++++++++++++....++++++++++++++++++++++++++++....",
"++++++++++++++++++++++++++++....++++++++++++++++++++++++++++....",
"++++++++++++++++++++++++++++....++++++++++++++++++++++++++++....",
"++++++++++++++++++++++++++++....++++++++++++++++++++++++++++....",
"++++++++++++++++++++++++++++....++++++++++++++++++++++++++++....",
"+++++++++++@@@@@@@@@@+++++++....############################....",
"+++++++++++@@@@@@@@@@+++++++....############################....",
"+++++++@@@@$$$$$$$$$$@@@@+++....############################....",
"+++++++@@@@$$$$$$$$$$@@@@+++....############################....",
"     @@$$$$$$$$$$$$$$$$$$@@@@               ....................",
"     @@$$$$$$$$$$$$$$$$$$@@@@               ....................",
"   @@%%%%$$$$&&&&@@@@**$$&&&&@@             ....................",
"   @@%%%%$$$$&&&&@@@@**$$&&&&@@             ....................",
".@@%%%%%%%%$$&&&&@@====@@@@&&&&@@+++++++++++++++++++++++++++....",
".@@%%%%%%%%$$&&&&@@====@@@@&&&&@@+++++++++++++++++++++++++++....",
"@%%%%%%%%%%%%$$@@======@@@@@@&&&&@@+++++++++++++++++++++++++....",
"@%%%%%%%%%%%%$$@@======@@@@@@&&&&@@+++++++++++++++++++++++++....",
"@%%%%%%%%%%%%%%@@--**@@==@@@@&&&&@@+++++++++++++++++++++++++....",
"@%%%%%%%%%%%%%%@@--**@@==@@@@&&&&@@+++++++++++++++++++++++++....",
"@%%$$%%%%%%%%%%@@--@@@@@@==**--&&&&++++++@@@@@@+++++++++++++....",
"@%%$$%%%%%%%%%%@@--@@@@@@==**--&&&&++++++@@@@@@+++++++++++++....",
"@@@@@%%%%%%%%%%%%@@@@@@@@==@@@@&&&&@@@@@@$$$$@@+++++++++++++....",
"@@@@@%%%%%%%%%%%%@@@@@@@@==@@@@&&&&@@@@@@$$$$@@+++++++++++++....",
"...@@%%%%%%%%%%%%@@@@@@--==--@@&&@@@@@@@@@@$$@@+++++++++++++....",
"...@@%%%%%%%%%%%%@@@@@@--==--@@&&@@@@@@@@@@$$@@+++++++++++++....",
"...@@%%%%%%%%%%%%&&@@--====@@@@@@@@@@@@&&&&$$@@+++++++++++++....",
"...@@%%%%%%%%%%%%&&@@--====@@@@@@@@@@@@&&&&$$@@+++++++++++++....",
"....+@@%%%%%%%%%%$$@@@@==&&&&@@@@@@;;>>,,&&$$@@+++++++++++++....",
"....+@@%%%%%%%%%%$$@@@@==&&&&@@@@@@;;>>,,&&$$@@+++++++++++++....",
"....+@@%%$$%%$$$$$$$$&&&&&&&&@@''>>;;>>,,$$@@@@+++++++++++++....",
"....+@@%%$$%%$$$$$$$$&&&&&&&&@@''>>;;>>,,$$@@@@+++++++++++++....",
"....+@@$$$$$$$$$$$$$$&&&&&&,,>>>>>>;;;;;;@@@@&&&&+++++++++++....",
"....+@@$$$$$$$$$$$$$$&&&&&&,,>>>>>>;;;;;;@@@@&&&&+++++++++++....",
"....+++@@$$$$$$$$$$$$$$@@@@'''''';;;;>>''@@@@&&&&&&+++++++++....",
"....+++@@$$$$$$$$$$$$$$@@@@'''''';;;;>>''@@@@&&&&&&+++++++++....",
"....+++@@$$&&&&&&&&&&$$$$,,,,>>;;>>''''''@@@@&&&&&&@@+++++++....",
"....+++@@$$&&&&&&&&&&$$$$,,,,>>;;>>''''''@@@@&&&&&&@@+++++++....",
"....+++++@@&&&&@@&&$$$$$$,,,,,,,,'''',,@@@@@@&&&&&&@@@@@@@@@@@@.",
"....+++++@@&&&&@@&&$$$$$$,,,,,,,,'''',,@@@@@@&&&&&&@@@@@@@@@@@@.",
"....+++++@@@@@@@@%%$$%%%%@@,,,,,,@@@@@@@@@@@@&&&&@@@@----======@",
"....+++++@@@@@@@@%%$$%%%%@@,,,,,,@@@@@@@@@@@@&&&&@@@@----======@"};
