/* XPM */
static char * KnightDL3_xpm[] = {
"64 64 11 1",
" 	c #0F1A1B",
".	c #162527",
"+	c #1D2E30",
"@	c #141412",
"#	c #242A36",
"$	c #3B535E",
"%	c #5C8EA5",
"&	c #8AC6E0",
"*	c #243A3C",
"=	c #B56C30",
"-	c #47280D",
"                                                                ",
"                                                                ",
"                                                                ",
"                                                                ",
"............    ....    ....    ............................    ",
"............    ....    ....    ............................    ",
"............    ....    ....    ............................    ",
"............    ....    ....    ............................    ",
"............    ....    ....    ............................    ",
"............    ....    ....    ............................    ",
"............    ....    ....    ............................    ",
"............    ....    ....    ............................    ",
"++++++++++++++++++++++++++++    ++++++++++++++++++++++++++++    ",
"++++++++++++++++++++++++++++    ++++++++++++++++++++++++++++    ",
"++++++++++++++++++++++++++++    ++++++++++++++++++++++++++++    ",
"++++++++++++++++++++++++++++    ++++++++++++++++++++++++++++    ",
"++++++++++++++++++++++++++++....++++++++++++++++++++++++++++....",
"++++++++++++++++++++++++++++....++++++++++++++++++++++++++++....",
"++++++++++++++++++++++++++++....++++++++++++++++++++++++++++....",
"++++++++++++++++++++++++++++....++++++++++++++++++++++++++++....",
"++++++++++++++++++++++++++++....++++++++++++++++++++++++++++....",
"++++++++++++++++++++++++++++....++++++++++++++++++++++++++++....",
"++++++++++++++++@@@@@@##############++++++++++++++++++++++++....",
"++++++++++++++++@@@@@@##############++++++++++++++++++++++++....",
"++++++++++++++@@@@##$$%%$$&&&&&&%%####++++++++++++++++++++++....",
"++++++++++++++@@@@##$$%%$$&&&&&&%%####++++++++++++++++++++++....",
"++++++++++++@@@@####$$%%$$&&&&&&&&&&####++++++++++++++++++++....",
"++++++++++++@@@@####$$%%$$&&&&&&&&&&####++++++++++++++++++++....",
"++++++++++@@@@######$$%%$$&&&&&&&&&&%%####******************....",
"++++++++++@@@@######$$%%$$&&&&&&&&&&%%####******************....",
"++++++++++@@@@@@@@@@############&&%%%%%%##******************....",
"++++++++++@@@@@@@@@@############&&%%%%%%##******************....",
"          @@@@@@@@@@################%%%%##  ....................",
"          @@@@@@@@@@################%%%%##  ....................",
"          @@%%&&%%&&&&&&&&&&&&$$$$####$$##  ....................",
"          @@%%&&%%&&&&&&&&&&&&$$$$####$$##  ....................",
"..........@@%%&&%%&&&&&&&&&&&&%%%%%%##$$##++++++++++++++++++....",
"..........@@%%&&%%&&&&&&&&&&&&%%%%%%##$$##++++++++++++++++++....",
"..........@@%%&&%%&&&&&&&&&&&&%%%%====$$##++++++++++++++++++....",
"..........@@%%&&%%&&&&&&&&&&&&%%%%====$$##++++++++++++++++++....",
"....++++++@@@@@@##@@##@@##@@##@@##====$$##++++++++++++++++++....",
"....++++++@@@@@@##@@##@@##@@##@@##====$$##++++++++++++++++++....",
"....++++++++@@@@$$##$$##$$##$$@@######@@##@@++++++++++++++++....",
"....++++++++@@@@$$##$$##$$##$$@@######@@##@@++++++++++++++++....",
"....++++++++@@&&&&&&&&&&&&&&&&$$$$##@@@@&&&&$$++++++++++++++....",
"....++++++++@@&&&&&&&&&&&&&&&&$$$$##@@@@&&&&$$++++++++++++++....",
"....++++++++++@@####################$$&&&&&&&&@@++++++++++++....",
"....++++++++++@@####################$$&&&&&&&&@@++++++++++++....",
"....++++++++++@@####$$$$%%%%%%$$$$$$$$&&&&&&&&@@++++++++++++....",
"....++++++++++@@####$$$$%%%%%%$$$$$$$$&&&&&&&&@@++++++++++++....",
"....++++++++++@@####%%&&&&&&&&&&%%%%@@$$&&&&%%@@++++++++++++....",
"....++++++++++@@####%%&&&&&&&&&&%%%%@@$$&&&&%%@@++++++++++++....",
"....++++++++++++@@@@$$$$%%%%%%$$$$$$@@@@@@@@@@++++++++++++++....",
"....++++++++++++@@@@$$$$%%%%%%$$$$$$@@@@@@@@@@++++++++++++++....",
"....++++++++++++++@@$$$$%%%%%%$$$$$$##@@@@@@@@++++++++++++++....",
"....++++++++++++++@@$$$$%%%%%%$$$$$$##@@@@@@@@++++++++++++++....",
"....++++++++++++++@@##$$%%%%%%$$@@@@$$$$##$$##@@@@++++++++++....",
"....++++++++++++++@@##$$%%%%%%$$@@@@$$$$##$$##@@@@++++++++++....",
"....++++++++++++++++@@@@@@######$$==$$$$##$$$$$$##@@@@++++++....",
"....++++++++++++++++@@@@@@######$$==$$$$##$$$$$$##@@@@++++++....",
"....++++++++++++++++++@@@@@@##==$$$$==$$##$$$$$$$$------@@@@....",
"....++++++++++++++++++@@@@@@##==$$$$==$$##$$$$$$$$------@@@@....",
"....++++++++++++++++++++@@@@##$$==$$$$######$$$$$$------====@@..",
"....++++++++++++++++++++@@@@##$$==$$$$######$$$$$$------====@@.."};
