/* XPM */
static char * KnightR3_xpm[] = {
"64 64 11 1",
" 	c #0F1A1B",
".	c #162527",
"+	c #242A36",
"@	c #141412",
"#	c #1D2E30",
"$	c #5C8EA5",
"%	c #8AC6E0",
"&	c #3B535E",
"*	c #B56C30",
"=	c #243A3C",
"-	c #47280D",
"                                                                ",
"                                                                ",
"                                                                ",
"                                                                ",
"............    ....    ....    ............................    ",
"............    ....    ....    ............................    ",
"............    ....    ....    ............................    ",
"............    ....    ....    ............................    ",
"............    ....    ....    ............................    ",
"............    ....    ....    ............................    ",
"............    .... ++++++++++++++@@@@@@...................    ",
"............    .... ++++++++++++++@@@@@@...................    ",
"###################++++$$%%%%%%&&$$&&++@@@@#################    ",
"###################++++$$%%%%%%&&$$&&++@@@@#################    ",
"#################++++%%%%%%%%%%&&$$&&++++@@@@###############    ",
"#################++++%%%%%%%%%%&&$$&&++++@@@@###############    ",
"###############++++$$%%%%%%%%%%&&$$&&++++++@@@@#############....",
"###############++++$$%%%%%%%%%%&&$$&&++++++@@@@#############....",
"###############++$$$$$$%%++++++++++++@@@@@@@@@@#############....",
"###############++$$$$$$%%++++++++++++@@@@@@@@@@#############....",
"###############++$$$$++++&&%%%%%%%%%%%%$$%%$$@@#############....",
"###############++$$$$++++&&%%%%%%%%%%%%$$%%$$@@#############....",
"###############++&&++++&&$$%%%%%%%%%%%%$$%%$$@@#############....",
"###############++&&++++&&$$%%%%%%%%%%%%$$%%$$@@#############....",
"###############++&&++$$$$$$%%%%%%%%%%%%$$%%$$@@#############....",
"###############++&&++$$$$$$%%%%%%%%%%%%$$%%$$@@#############....",
"###############++&&****$$&&@@@@@@@@@@@@@@@@@@@@#############....",
"###############++&&****$$&&@@@@@@@@@@@@@@@@@@@@#############....",
"###############++&&****++@@++@@++@@++@@++@@@@@@=============....",
"###############++&&****++@@++@@++@@++@@++@@@@@@=============....",
"###############++@@++++++@@&&++&&++&&++&&@@@@===============....",
"###############++@@++++++@@&&++&&++&&++&&@@@@===============....",
"                 @@@@++&&&&%%%%%%%%%%%%%%%%@@...................",
"                 @@@@++&&&&%%%%%%%%%%%%%%%%@@...................",
"                   @@@@++&&&&$$$$$$$$$$$$&&@@...................",
"                   @@@@++&&&&$$$$$$$$$$$$&&@@...................",
".................&&%%%%$$++@@@@@@@@@@@@@@@@@@@@#############....",
".................&&%%%%$$++@@@@@@@@@@@@@@@@@@@@#############....",
"...............@@%%%%%%%%&&&&&&++++@@++++&&++++@@###########....",
"...............@@%%%%%%%%&&&&&&++++@@++++&&++++@@###########....",
"....###########@@%%%%%%%%&&&&&&&&$$$$$$&&&&++++@@###########....",
"....###########@@%%%%%%%%&&&&&&&&$$$$$$&&&&++++@@###########....",
"....###########@@$$%%%%&&@@$$$$%%%%%%%%%%$$++++@@###########....",
"....###########@@$$%%%%&&@@$$$$%%%%%%%%%%$$++++@@###########....",
"....#############@@@@@@@@@@&&&&&&$$$$$$&&&&@@@@#############....",
"....#############@@@@@@@@@@&&&&&&$$$$$$&&&&@@@@#############....",
"....###############@@@@++++&&&&&&$$$$$$&&&&@@###############....",
"....###############@@@@++++&&&&&&$$$$$$&&&&@@###############....",
"....#################@@@@------**********@@#################....",
"....#################@@@@------**********@@#################....",
"....#################@@@@++++++++++--++--@@#################....",
"....#################@@@@++++++++++--++--@@#################....",
"....#################@@&&&&&&++&&&&**&&**++@@###############....",
"....#################@@&&&&&&++&&&&**&&**++@@###############....",
"....###############@@&&&&&&++++&&&&**&&**++@@@@#############....",
"....###############@@&&&&&&++++&&&&**&&**++@@@@#############....",
"....#############@@********@@@@&&&&&&&&&&****@@#############....",
"....#############@@********@@@@&&&&&&&&&&****@@#############....",
"....###########@@--------@@@@@@&&&&&&&&&&--@@###############....",
"....###########@@--------@@@@@@&&&&&&&&&&--@@###############....",
"....#########@@--------@@###....###@@------@@###############....",
"....#########@@--------@@###....###@@------@@###############....",
"....#######@@******--@@#####....###@@********@@#############....",
"....#######@@******--@@#####....###@@********@@#############...."};
