/* XPM */
static char * RogueDL4_xpm[] = {
"64 64 15 1",
" 	c #0F1A1B",
".	c #162527",
"+	c #1D2E30",
"@	c #243A3C",
"#	c #141412",
"$	c #373A20",
"%	c #252716",
"&	c #5F5625",
"*	c #928230",
"=	c #331E32",
"-	c #47280D",
";	c #5F2E5C",
">	c #B56C30",
",	c #932D8B",
"'	c #F09A53",
"                                                                ",
"                                                                ",
"                                                                ",
"                                                                ",
"............    ....    ....    ............................    ",
"............    ....    ....    ............................    ",
"............    ....    ....    ............................    ",
"............    ....    ....    ............................    ",
"............    ....    ....    ............................    ",
"............    ....    ....    ............................    ",
"............    ....    ....    ............................    ",
"............    ....    ....    ............................    ",
"++++++++++++++++++++++++++++    ++++++++++++++++++++++++++++    ",
"++++++++++++++++++++++++++++    ++++++++++++++++++++++++++++    ",
"++++++++++++++++++++++++++++    ++++++++++++++++++++++++++++    ",
"++++++++++++++++++++++++++++    ++++++++++++++++++++++++++++    ",
"++++++++++++++++++++++++++++....++++++++++++++++++++++++++++....",
"++++++++++++++++++++++++++++....++++++++++++++++++++++++++++....",
"++++++++++++++++++++++++++++....++++++++++++++++++++++++++++....",
"++++++++++++++++++++++++++++....++++++++++++++++++++++++++++....",
"++++++++++++++++++++++++++++....++++++++++++++++++++++++++++....",
"++++++++++++++++++++++++++++....++++++++++++++++++++++++++++....",
"++++++++++++++++++++++++++++....++++++++++++++++++++++++++++....",
"++++++++++++++++++++++++++++....++++++++++++++++++++++++++++....",
"++++++++++++++++++++++++++++....++++++++++++++++++++++++++++....",
"++++++++++++++++++++++++++++....++++++++++++++++++++++++++++....",
"++++++++++++++++++++++++++++....++++++++++++++++++++++++++++....",
"++++++++++++++++++++++++++++....++++++++++++++++++++++++++++....",
"++++++++++++++++++++++++++++....@@@@@@@@@@@@@@@@@@@@@@@@@@@@....",
"++++++++++++++++++++++++++++....@@@@@@@@@@@@@@@@@@@@@@@@@@@@....",
"++++++++++++++++++++++++++++....@@@@@@@@@@@@@@@@@@@@@@@@@@@@....",
"++++++++++++++++++++++++++++....@@@@@@@@@@@@@@@@@@@@@@@@@@@@....",
"                                            ....................",
"                                            ....................",
"                ##########                  ....................",
"                ##########                  ....................",
"..........######$$$$$$$$$$##    ++++++++++++++++++++++++++++....",
"..........######$$$$$$$$$$##    ++++++++++++++++++++++++++++....",
"......%%%%$$$$$$$$$$$$$$&&$$##%%%%%%%%++++++++++++++++++++++....",
"......%%%%$$$$$$$$$$$$$$&&$$##%%%%%%%%++++++++++++++++++++++....",
"....%%**&&$$$$$$$$$$$$$$&&####&&******%%++++++++++++++++++++....",
"....%%**&&$$$$$$$$$$$$$$&&####&&******%%++++++++++++++++++++....",
"..%%******&&$$$$$$$$$$&&&&##$$**********%%++++++++++++++++++....",
"..%%******&&$$$$$$$$$$&&&&##$$**********%%++++++++++++++++++....",
"%%&&****************&&&&&&$$&&**********%%++++++++++++++++++....",
"%%&&****************&&&&&&$$&&**********%%++++++++++++++++++....",
"%%&&********&&####&&****$$$$$$&&******%%##++++++++++++++++++....",
"%%&&********&&####&&****$$$$$$&&******%%##++++++++++++++++++....",
"%%******&&############==&&$$$$&&&&&&########++++++++++++++++....",
"%%******&&############==&&$$$$&&&&&&########++++++++++++++++....",
"&&******##############====&&&&&&&&$$$$##----++++++++++++++++....",
"&&******##############====&&&&&&&&$$$$##----++++++++++++++++....",
"&&****&&################==****&&&&$$$$$$----####++++++++++++....",
"&&****&&################==****&&&&$$$$$$----####++++++++++++....",
"%%****##################;;;;****&&&&$$>>>>--&&&&####++++++++....",
"%%****##################;;;;****&&&&$$>>>>--&&&&####++++++++....",
"%%&&**##################,,;;******&&$$>>>>&&&&&&****####++++....",
"%%&&**##################,,;;******&&$$>>>>&&&&&&****####++++....",
"..##****##############;;,,&&******##''''$$**************########",
"..##****##############;;,,&&******##''''$$**************########",
"....##****############,,,,&&******&&''''##&&************%%##>>''",
"....##****############,,,,&&******&&''''##&&************%%##>>''",
"....++####**&&&&####,,,,;;******&&>>>>######&&**********####>>''",
"....++####**&&&&####,,,,;;******&&>>>>######&&**********####>>''"};
