/* XPM */
static char * RogueDL2_xpm[] = {
"64 64 16 1",
" 	c #0F1A1B",
".	c #162527",
"+	c #1D2E30",
"@	c #252716",
"#	c #141412",
"$	c #928230",
"%	c #5F5625",
"&	c #373A20",
"*	c #243A3C",
"=	c #1C3845",
"-	c #331E32",
";	c #5F2E5C",
">	c #932D8B",
",	c #B56C30",
"'	c #F09A53",
")	c #47280D",
"                                                                ",
"                                                                ",
"                                                                ",
"                                                                ",
"............    ....    ....    ............................    ",
"............    ....    ....    ............................    ",
"............    ....    ....    ............................    ",
"............    ....    ....    ............................    ",
"............    ....    ....    ............................    ",
"............    ....    ....    ............................    ",
"............    ....    ....    ............................    ",
"............    ....    ....    ............................    ",
"++++++++++++++++++++++++++++    ++++++++++++++++++++++++++++    ",
"++++++++++++++++++++++++++++    ++++++++++++++++++++++++++++    ",
"++++++++++++++++++++++++++++    ++++++++++++++++++++++++++++    ",
"++++++++++++++++++++++++++++    ++++++++++++++++++++++++++++    ",
"++++++++++++++++++++++++++++....++++++++++++++++++++++++++++....",
"++++++++++++++++++++++++++++....++++++++++++++++++++++++++++....",
"++++++++++++++++++++++++++++@@@@@@@@++++++++++++++++++++++++....",
"++++++++++++++++++++++++++++@@@@@@@@++++++++++++++++++++++++....",
"++++++++++++++++++++++++####$$$$$$$$@@@@@@++++++++++++++++++....",
"++++++++++++++++++++++++####$$$$$$$$@@@@@@++++++++++++++++++....",
"++++++++++++++++++++++##%%$$$$$$$$$$$$$$%%@@++++++++++++++++....",
"++++++++++++++++++++++##%%$$$$$$$$$$$$$$%%@@++++++++++++++++....",
"++++++++++++++++++++##$$$$$$$$$$$$$$$$$$%%%%##++++++++++++++....",
"++++++++++++++++++++##$$$$$$$$$$$$$$$$$$%%%%##++++++++++++++....",
"++++++++++++++++++##$$$$%%####%%$$$$$$%%&&&&&&##++++++++++++....",
"++++++++++++++++++##$$$$%%####%%$$$$$$%%&&&&&&##++++++++++++....",
"++++++++++++++++++##$$%%##########$$%%&&&&&&&&##************....",
"++++++++++++++++++##$$%%##########$$%%&&&&&&&&##************....",
"++++++++++++++++++##$$##############$$&&&&&&&&&&##**********....",
"++++++++++++++++++##$$##############$$&&&&&&&&&&##**********....",
"                  ##$$##############$$%%&&&&&&&&##..............",
"                  ##$$##############$$%%&&&&&&&&##..............",
"                  ##%%##==####==####--$$&&%%%%%%&&##............",
"                  ##%%##==####==####--$$&&%%%%%%&&##............",
"..................##&&##############--$$%%%%%%&&####++++++++....",
"..................##&&##############--$$%%%%%%&&####++++++++....",
"..................##--##########--;;--%%&&&&######++++++++++....",
"..................##--##########--;;--%%&&&&######++++++++++....",
"....++++++++++++++##;;>>>>>>>>;;;;;;%%%%&&&&&&&&##++++++++++....",
"....++++++++++++++##;;>>>>>>>>;;;;;;%%%%&&&&&&&&##++++++++++....",
"....++++++++++++####;;>>>>>>>>;;;;$$%%&&&&$$$$$$@@++++++++++....",
"....++++++++++++####;;>>>>>>>>;;;;$$%%&&&&$$$$$$@@++++++++++....",
"....++++++++++++####$$$$%%%%$$$$$$$$&&%%$$$$$$$$$$@@++++++++....",
"....++++++++++++####$$$$%%%%$$$$$$$$&&%%$$$$$$$$$$@@++++++++....",
"....++++++++++++####$$$$$$$$$$$$$$&&&&&&%%$$$$$$%%@@++++++++....",
"....++++++++++++####$$$$$$$$$$$$$$&&&&&&%%$$$$$$%%@@++++++++....",
"....++++++++++++++##%%$$$$$$$$$$%%&&&&&&##@@@@@@@@++++++++++....",
"....++++++++++++++##%%$$$$$$$$$$%%&&&&&&##@@@@@@@@++++++++++....",
"....++++++++++++++++############&&&&&&&&######++++++++++++++....",
"....++++++++++++++++############&&&&&&&&######++++++++++++++....",
"....++++++++++++++++##,,,,'''',,,,,,)),,))))++++++++++++++++....",
"....++++++++++++++++##,,,,'''',,,,,,)),,))))++++++++++++++++....",
"....++++++++++++++++##,,'''''''',,,,)),,))))++++++++++++++++....",
"....++++++++++++++++##,,'''''''',,,,)),,))))++++++++++++++++....",
"....++++++++++++++##&&&&,,''''%%%%%%%%%%%%%%##########++++++....",
"....++++++++++++++##&&&&,,''''%%%%%%%%%%%%%%##########++++++....",
"....++++++++++++##%%%%%%%%####&&$$$$$$$$$$$$%%@@##,,))''##++....",
"....++++++++++++##%%%%%%%%####&&$$$$$$$$$$$$%%@@##,,))''##++....",
"....++++++++++++##%%%%%%%%######&&$$$$$$$$$$$$@@##,,))''##++....",
"....++++++++++++##%%%%%%%%######&&$$$$$$$$$$$$@@##,,))''##++....",
"....++++++++++++##%%%%%%##########$$$$$$$$$$$$########''##++....",
"....++++++++++++##%%%%%%##########$$$$$$$$$$$$########''##++...."};
