/* XPM */
static char * Box_xpm[] = {
"64 64 8 1",
" 	c #0F1A1B",
".	c #162527",
"+	c #141412",
"@	c #1D2E30",
"#	c #332520",
"$	c #3D3122",
"%	c #281818",
"&	c #523D2A",
"                                                                ",
"                                                                ",
"                                                                ",
"                                                                ",
"............    ....    ....    ............................    ",
"............    ....    ....    ............................    ",
"............    ....    ....    ............................    ",
"............    ....    ....    ............................    ",
"++++++++++++    ....    ....    ............................    ",
"++++++++++++    ....    ....    ............................    ",
"++++++++++++    ....    ....    ............................    ",
"++++++++++++    ....    ....    ............................    ",
"++++++++++++++++@@@@++++++++    @@@@@@@@@@@@@@@@@@@@@@@@@@@@    ",
"++++++++++++++++@@@@++++++++    @@@@@@@@@@@@@@@@@@@@@@@@@@@@    ",
"++++++++++++++++@@@@++++++++    @@@@@@@@@@@@@@@@@@@@@@@@@@@@    ",
"++++++++++++++++@@@@++++++++    @@@@@@@@@@@@@@@@@@@@@@@@@@@@    ",
"++++++++++++++++++++++++++++....++++++++@@@@@@@@@@@@++++++++++++",
"++++++++++++++++++++++++++++....++++++++@@@@@@@@@@@@++++++++++++",
"++++++++++++++++++++++++++++....++++++++@@@@@@@@@@@@++++++++++++",
"++++++++++++++++++++++++++++....++++++++@@@@@@@@@@@@++++++++++++",
"++++++++++++++++++++++++++++++++++++++++@@@@++++++++++++++++++++",
"++++++++++++++++++++++++++++++++++++++++@@@@++++++++++++++++++++",
"++++++++++++++++++++++++++++++++++++++++@@@@++++++++++++++++++++",
"++++++++++++++++++++++++++++++++++++++++@@@@++++++++++++++++++++",
"++++++++++++++++++++++++++++++++++++++++++++++++++++++++++++++++",
"++++++++++++++++++++++++++++++++++++++++++++++++++++++++++++++++",
"++++++++++++++++++++++++++++++++++++++++++++++++++++++++++++++++",
"++++++++++++++++++++++++++++++++++++++++++++++++++++++++++++++++",
"++++++++++++++++++++++++++++++++++++++++++++++++++++++++++++++++",
"++++++++++++++++++++++++++++++++++++++++++++++++++++++++++++++++",
"++++++++++++++++++++++++++++++++++++++++++++++++++++++++++++++++",
"++++++++++++++++++++++++++++++++++++++++++++++++++++++++++++++++",
"++++++++++++++++++++++++++++++++++++++++++++++++++++########++++",
"++++++++++++++++++++++++++++++++++++++++++++++++++++########++++",
"++++++++++++++++++++++++++++++++++++++++++++++++++++########++++",
"++++++++++++++++++++++++++++++++++++++++++++++++++++########++++",
"++++$$$$$$$$++++++++++++++++++++++++++++++++++++++++########++++",
"++++$$$$$$$$++++++++++++++++++++++++++++++++++++++++########++++",
"++++$$$$$$$$++++++++++++++++++++++++++++++++++++++++########++++",
"++++$$$$$$$$++++++++++++++++++++++++++++++++++++++++########++++",
"++++$$$$$$$$++++++++########++++++++++++++++++++++++########++++",
"++++$$$$$$$$++++++++########++++++++++++++++++++++++########++++",
"++++$$$$$$$$++++++++########++++++++++++++++++++++++########++++",
"++++$$$$$$$$++++++++########++++++++++++++++++++++++########++++",
"%%%%$$$$$$$$%%%%%%%%########%%%%++++++++++++########$$$$$$$$++++",
"%%%%$$$$$$$$%%%%%%%%########%%%%++++++++++++########$$$$$$$$++++",
"%%%%$$$$$$$$%%%%%%%%########%%%%++++++++++++########$$$$$$$$++++",
"%%%%$$$$$$$$%%%%%%%%########%%%%++++++++++++########$$$$$$$$++++",
"%%%%$$$$$$$$%%%%%%%%########%%%%########%%%%########$$$$$$$$++++",
"%%%%$$$$$$$$%%%%%%%%########%%%%########%%%%########$$$$$$$$++++",
"%%%%$$$$$$$$%%%%%%%%########%%%%########%%%%########$$$$$$$$++++",
"%%%%$$$$$$$$%%%%%%%%########%%%%########%%%%########$$$$$$$$++++",
"%%%%&&&&&&&&####$$$$$$$$$$$$$$$$$$$$$$$$$$$$$$$$####&&&&&&&&++++",
"%%%%&&&&&&&&####$$$$$$$$$$$$$$$$$$$$$$$$$$$$$$$$####&&&&&&&&++++",
"%%%%&&&&&&&&####$$$$$$$$$$$$$$$$$$$$$$$$$$$$$$$$####&&&&&&&&++++",
"%%%%&&&&&&&&####$$$$$$$$$$$$$$$$$$$$$$$$$$$$$$$$####&&&&&&&&++++",
"%%%%&&&&&&&&####$$$$$$$$$$$$$$$$$$$$$$$$$$$$$$$$####&&&&&&&&++++",
"%%%%&&&&&&&&####$$$$$$$$$$$$$$$$$$$$$$$$$$$$$$$$####&&&&&&&&++++",
"%%%%&&&&&&&&####$$$$$$$$$$$$$$$$$$$$$$$$$$$$$$$$####&&&&&&&&++++",
"%%%%&&&&&&&&####$$$$$$$$$$$$$$$$$$$$$$$$$$$$$$$$####&&&&&&&&++++",
"++++++++++++++++++++++++++++++++++++++++++++++++++++++++++++++++",
"++++++++++++++++++++++++++++++++++++++++++++++++++++++++++++++++",
"++++++++++++++++++++++++++++++++++++++++++++++++++++++++++++++++",
"++++++++++++++++++++++++++++++++++++++++++++++++++++++++++++++++"};
