/* XPM */
static char * Exit_closed_xpm[] = {
"64 64 8 1",
" 	c #6E4B2C",
".	c #523D2A",
"+	c #141412",
"@	c #281818",
"#	c #332520",
"$	c #5C8EA5",
"%	c #3B535E",
"&	c #8AC6E0",
"    ....                                                ....    ",
"    ....                                                ....    ",
"    ....                                                ....    ",
"    ....                                                ....    ",
"....++++++++++++++++++++++++++++++++++++++++++++++++++++++++....",
"....++++++++++++++++++++++++++++++++++++++++++++++++++++++++....",
"....++++++++++++++++++++++++++++++++++++++++++++++++++++++++....",
"....++++++++++++++++++++++++++++++++++++++++++++++++++++++++....",
"    ++++++++@@@@@@@@@@@@++++@@@@@@@@@@@@++++@@@@@@@@@@@@++++    ",
"    ++++++++@@@@@@@@@@@@++++@@@@@@@@@@@@++++@@@@@@@@@@@@++++    ",
"    ++++++++@@@@@@@@@@@@++++@@@@@@@@@@@@++++@@@@@@@@@@@@++++    ",
"    ++++++++@@@@@@@@@@@@++++@@@@@@@@@@@@++++@@@@@@@@@@@@++++    ",
"    ++++++++@@@@########++++############++++############++++    ",
"    ++++++++@@@@########++++############++++############++++    ",
"    ++++++++@@@@########++++############++++############++++    ",
"    ++++++++@@@@########++++############++++############++++    ",
"$$$$%%%%$$$$@@@@########@@@@############@@@@############@@@@$$$$",
"$$$$%%%%$$$$@@@@########@@@@############@@@@############@@@@$$$$",
"$$$$%%%%$$$$@@@@########@@@@############@@@@############@@@@$$$$",
"$$$$%%%%$$$$@@@@########@@@@############@@@@############@@@@$$$$",
"$$$$%%%%$$$$@@@@########@@@@############@@@@############%%%%&&&&",
"$$$$%%%%$$$$@@@@########@@@@############@@@@############%%%%&&&&",
"$$$$%%%%$$$$@@@@########@@@@############@@@@############%%%%&&&&",
"$$$$%%%%$$$$@@@@########@@@@############@@@@############%%%%&&&&",
"    ++++++++++++########@@@@############@@@@####$$$$%%%%$$$$&&&&",
"    ++++++++++++########@@@@############@@@@####$$$$%%%%$$$$&&&&",
"    ++++++++++++########@@@@############@@@@####$$$$%%%%$$$$&&&&",
"    ++++++++++++########@@@@############@@@@####$$$$%%%%$$$$&&&&",
"    ++++++++@@@@########@@@@############@@@@####$$$$++++++++&&&&",
"    ++++++++@@@@########@@@@############@@@@####$$$$++++++++&&&&",
"    ++++++++@@@@########@@@@############@@@@####$$$$++++++++&&&&",
"    ++++++++@@@@########@@@@############@@@@####$$$$++++++++&&&&",
"    ++++++++@@@@########@@@@############@@@@####$$$$%%%%$$$$&&&&",
"    ++++++++@@@@########@@@@############@@@@####$$$$%%%%$$$$&&&&",
"    ++++++++@@@@########@@@@############@@@@####$$$$%%%%$$$$&&&&",
"    ++++++++@@@@########@@@@############@@@@####$$$$%%%%$$$$&&&&",
"    ++++++++@@@@########@@@@############@@@@####@@@@@@@@%%%%&&&&",
"    ++++++++@@@@########@@@@############@@@@####@@@@@@@@%%%%&&&&",
"    ++++++++@@@@########@@@@############@@@@####@@@@@@@@%%%%&&&&",
"    ++++++++@@@@########@@@@############@@@@####@@@@@@@@%%%%&&&&",
"$$$$%%%%$$$$@@@@########@@@@############@@@@############@@@@$$$$",
"$$$$%%%%$$$$@@@@########@@@@############@@@@############@@@@$$$$",
"$$$$%%%%$$$$@@@@########@@@@############@@@@############@@@@$$$$",
"$$$$%%%%$$$$@@@@########@@@@############@@@@############@@@@$$$$",
"$$$$%%%%$$$$@@@@########@@@@############@@@@############@@@@    ",
"$$$$%%%%$$$$@@@@########@@@@############@@@@############@@@@    ",
"$$$$%%%%$$$$@@@@########@@@@############@@@@############@@@@    ",
"$$$$%%%%$$$$@@@@########@@@@############@@@@############@@@@    ",
"    ++++++++++++########++++############++++############@@@@    ",
"    ++++++++++++########++++############++++############@@@@    ",
"    ++++++++++++########++++############++++############@@@@    ",
"    ++++++++++++########++++############++++############@@@@    ",
"....++++++++++++@@@@@@@@++++@@@@@@@@@@@@++++@@@@@@@@@@@@@@@@....",
"....++++++++++++@@@@@@@@++++@@@@@@@@@@@@++++@@@@@@@@@@@@@@@@....",
"....++++++++++++@@@@@@@@++++@@@@@@@@@@@@++++@@@@@@@@@@@@@@@@....",
"....++++++++++++@@@@@@@@++++@@@@@@@@@@@@++++@@@@@@@@@@@@@@@@....",
"    ....                                                ....    ",
"    ....                                                ....    ",
"    ....                                                ....    ",
"    ....                                                ....    ",
"################################################################",
"################################################################",
"################################################################",
"################################################################"};
