/* XPM */
static char * Floor_xpm[] = {
"64 64 4 1",
" 	c #0F1A1B",
".	c #162527",
"+	c #1D2E30",
"@	c #243A3C",
"                                                                ",
"                                                                ",
"                                                                ",
"                                                                ",
"............    ....    ....    ............................    ",
"............    ....    ....    ............................    ",
"............    ....    ....    ............................    ",
"............    ....    ....    ............................    ",
"............    ....    ....    ............................    ",
"............    ....    ....    ............................    ",
"............    ....    ....    ............................    ",
"............    ....    ....    ............................    ",
"++++++++++++++++++++++++++++    ++++++++++++++++++++++++++++    ",
"++++++++++++++++++++++++++++    ++++++++++++++++++++++++++++    ",
"++++++++++++++++++++++++++++    ++++++++++++++++++++++++++++    ",
"++++++++++++++++++++++++++++    ++++++++++++++++++++++++++++    ",
"++++++++++++++++++++++++++++....++++++++++++++++++++++++++++....",
"++++++++++++++++++++++++++++....++++++++++++++++++++++++++++....",
"++++++++++++++++++++++++++++....++++++++++++++++++++++++++++....",
"++++++++++++++++++++++++++++....++++++++++++++++++++++++++++....",
"++++++++++++++++++++++++++++....++++++++++++++++++++++++++++....",
"++++++++++++++++++++++++++++....++++++++++++++++++++++++++++....",
"++++++++++++++++++++++++++++....++++++++++++++++++++++++++++....",
"++++++++++++++++++++++++++++....++++++++++++++++++++++++++++....",
"++++++++++++++++++++++++++++....++++++++++++++++++++++++++++....",
"++++++++++++++++++++++++++++....++++++++++++++++++++++++++++....",
"++++++++++++++++++++++++++++....++++++++++++++++++++++++++++....",
"++++++++++++++++++++++++++++....++++++++++++++++++++++++++++....",
"++++++++++++++++++++++++++++....@@@@@@@@@@@@@@@@@@@@@@@@@@@@....",
"++++++++++++++++++++++++++++....@@@@@@@@@@@@@@@@@@@@@@@@@@@@....",
"++++++++++++++++++++++++++++....@@@@@@@@@@@@@@@@@@@@@@@@@@@@....",
"++++++++++++++++++++++++++++....@@@@@@@@@@@@@@@@@@@@@@@@@@@@....",
"                                            ....................",
"                                            ....................",
"                                            ....................",
"                                            ....................",
"............................    ++++++++++++++++++++++++++++....",
"............................    ++++++++++++++++++++++++++++....",
"............................    ++++++++++++++++++++++++++++....",
"............................    ++++++++++++++++++++++++++++....",
"....++++++++++++++++++++++++    ++++++++++++++++++++++++++++....",
"....++++++++++++++++++++++++    ++++++++++++++++++++++++++++....",
"....++++++++++++++++++++++++    ++++++++++++++++++++++++++++....",
"....++++++++++++++++++++++++    ++++++++++++++++++++++++++++....",
"....++++++++++++++++++++++++    ++++++++++++++++++++++++++++....",
"....++++++++++++++++++++++++    ++++++++++++++++++++++++++++....",
"....++++++++++++++++++++++++    ++++++++++++++++++++++++++++....",
"....++++++++++++++++++++++++    ++++++++++++++++++++++++++++....",
"....++++++++++++++++++++++++....++++++++++++++++++++++++++++....",
"....++++++++++++++++++++++++....++++++++++++++++++++++++++++....",
"....++++++++++++++++++++++++....++++++++++++++++++++++++++++....",
"....++++++++++++++++++++++++....++++++++++++++++++++++++++++....",
"....++++++++++++++++++++++++....++++++++++++++++++++++++++++....",
"....++++++++++++++++++++++++....++++++++++++++++++++++++++++....",
"....++++++++++++++++++++++++....++++++++++++++++++++++++++++....",
"....++++++++++++++++++++++++....++++++++++++++++++++++++++++....",
"....++++++++++++++++++++++++....++++++++++++++++++++++++++++....",
"....++++++++++++++++++++++++....++++++++++++++++++++++++++++....",
"....++++++++++++++++++++++++....++++++++++++++++++++++++++++....",
"....++++++++++++++++++++++++....++++++++++++++++++++++++++++....",
"....++++++++++++++++++++++++....++++++++++++++++++++++++++++....",
"....++++++++++++++++++++++++....++++++++++++++++++++++++++++....",
"....++++++++++++++++++++++++....++++++++++++++++++++++++++++....",
"....++++++++++++++++++++++++....++++++++++++++++++++++++++++...."};
