/* XPM */
static char * Key_xpm[] = {
"64 64 8 1",
" 	c #0F1A1B",
".	c #162527",
"+	c #1D2E30",
"@	c #623E19",
"#	c #FFD967",
"$	c #211511",
"%	c #8A6D37",
"&	c #243A3C",
"                                                                ",
"                                                                ",
"                                                                ",
"                                                                ",
"............    ....    ....    ............................    ",
"............    ....    ....    ............................    ",
"............    ....    ....    ............................    ",
"............    ....    ....    ............................    ",
"............    ....    ....    ............................    ",
"............    ....    ....    ............................    ",
"............    ....    ....    ............................    ",
"............    ....    ....    ............................    ",
"++++++++++++++++++++++++++++    ++++++++++++++++++++++++++++    ",
"++++++++++++++++++++++++++++    ++++++++++++++++++++++++++++    ",
"++++++++++++++++++++++++++++    ++++++++++++++++++++++++++++    ",
"++++++++++++++++++++++++++++    ++++++++++++++++++++++++++++    ",
"++++++++++++++++++++++++++++....++++++++++++++++++++++++++++....",
"++++++++++++++++++++++++++++....++++++++++++++++++++++++++++....",
"++++++++++++++++++++++++++++....++++++++++++++++++++++++++++....",
"++++++++++++++++++++++++++++....++++++++@@@@@@@@++++++++++++....",
"++++++++++++++++++++++++++++....++++++++@@@@@@@@++++++++++++....",
"++++++++++++++++++++++++++++....++++++++@@@@@@@@++++++++++++....",
"++++++++++++++++++++++++++++....++++++++@@@@@@@@++++++++++++....",
"++++++++++++++++++++++++++++....++++@@@@########@@@@++++++++....",
"++++++++++++++++++++++++++++....++++@@@@########@@@@++++++++....",
"++++++++++++++++++++++++++++....++++@@@@########@@@@++++++++....",
"++++++++++++++++++++++++++++....++++@@@@########@@@@++++++++....",
"++++++++@@@@@@@@@@@@@@@@@@@@@@@@@@@@####@@@@$$$$%%%%$$$$++++....",
"++++++++@@@@@@@@@@@@@@@@@@@@@@@@@@@@####@@@@$$$$%%%%$$$$&&&&....",
"++++++++@@@@@@@@@@@@@@@@@@@@@@@@@@@@####@@@@$$$$%%%%$$$$&&&&....",
"++++++++@@@@@@@@@@@@@@@@@@@@@@@@@@@@####@@@@$$$$%%%%$$$$&&&&....",
"++++++++@@@@############################$$$$$$$$%%%%$$$$&&&&....",
"        @@@@############################$$$$$$$$%%%%$$$$........",
"        @@@@############################$$$$$$$$%%%%$$$$........",
"        @@@@############################$$$$$$$$%%%%$$$$........",
"        $$$$%%%%$$$$%%%%$$$$$$$$$$$$%%%%$$$$@@@@%%%%$$$$........",
"........$$$$%%%%$$$$%%%%$$$$$$$$$$$$%%%%$$$$@@@@%%%%$$$$++++....",
"........$$$$%%%%$$$$%%%%$$$$$$$$$$$$%%%%$$$$@@@@%%%%$$$$++++....",
"........$$$$%%%%$$$$%%%%$$$$$$$$$$$$%%%%$$$$@@@@%%%%$$$$++++....",
"........$$$$$$$$....$$$$$$$$    ++++$$$$%%%%%%%%$$$$++++++++....",
"....++++$$$$$$$$++++$$$$$$$$    ++++$$$$%%%%%%%%$$$$++++++++....",
"....++++$$$$$$$$++++$$$$$$$$    ++++$$$$%%%%%%%%$$$$++++++++....",
"....++++$$$$$$$$++++$$$$$$$$    ++++$$$$%%%%%%%%$$$$++++++++....",
"....++++++++++++++++++++++++    ++++++++$$$$$$$$++++++++++++....",
"....++++++++++++++++++++++++    ++++++++$$$$$$$$++++++++++++....",
"....++++++++++++++++++++++++    ++++++++$$$$$$$$++++++++++++....",
"....++++++++++++++++++++++++    ++++++++$$$$$$$$++++++++++++....",
"....++++++++++++++++++++++++    ++++++++++++++++++++++++++++....",
"....++++++++++++++++++++++++....++++++++++++++++++++++++++++....",
"....++++++++++++++++++++++++....++++++++++++++++++++++++++++....",
"....++++++++++++++++++++++++....++++++++++++++++++++++++++++....",
"....++++++++++++++++++++++++....++++++++++++++++++++++++++++....",
"....++++++++++++++++++++++++....++++++++++++++++++++++++++++....",
"....++++++++++++++++++++++++....++++++++++++++++++++++++++++....",
"....++++++++++++++++++++++++....++++++++++++++++++++++++++++....",
"....++++++++++++++++++++++++....++++++++++++++++++++++++++++....",
"....++++++++++++++++++++++++....++++++++++++++++++++++++++++....",
"....++++++++++++++++++++++++....++++++++++++++++++++++++++++....",
"....++++++++++++++++++++++++....++++++++++++++++++++++++++++....",
"....++++++++++++++++++++++++....++++++++++++++++++++++++++++....",
"....++++++++++++++++++++++++....++++++++++++++++++++++++++++....",
"....++++++++++++++++++++++++....++++++++++++++++++++++++++++....",
"....++++++++++++++++++++++++....++++++++++++++++++++++++++++....",
"....++++++++++++++++++++++++....++++++++++++++++++++++++++++...."};
