/* XPM */
static char * Wall_U_xpm[] = {
"64 64 6 1",
" 	c #141412",
".	c #607897",
"+	c #56687E",
"@	c #394554",
"#	c #343C45",
"$	c #2B3037",
"                                                                ",
"                                                                ",
"                                                                ",
"                                                                ",
"                                                                ",
"                                                                ",
"                                                                ",
"                                                                ",
"                                                                ",
"                                                                ",
"                                                                ",
"                                                                ",
"                                                                ",
"                                                                ",
"                                                                ",
"                                                                ",
"                                                                ",
"                                                                ",
"                                                                ",
"                                                                ",
"                                                                ",
"                                                                ",
"                                                                ",
"                                                                ",
"                                                                ",
"                                                                ",
"                                                                ",
"                                                                ",
"                                                                ",
"                                                                ",
"                                                                ",
"                                                                ",
"                                                                ",
"                                                                ",
"                                                                ",
"                                                                ",
"                                                                ",
"                                                                ",
"                                                                ",
"                                                                ",
"                                                                ",
"                                                                ",
"                                                                ",
"                                                                ",
"..............................++++++++++++++++++++++++....++++..",
"..............................++++++++++++++++++++++++....++++..",
"..............................++++++++++++++++++++++++....++++..",
"..............................++++++++++++++++++++++++....++++..",
"..............................++++++++++++++++++++++++....++++..",
"..............................++++++++++++++++++++++++....++++..",
"..............................++++++++++++++++++++++++....++++..",
"..............................++++++++++++++++++++++++....++++..",
"@@@@@@@@@@@@@@@@@@@@@@@@@@@@@@########################@@@@####@@",
"@@@@@@@@@@@@@@@@@@@@@@@@@@@@@@########################@@@@####@@",
"@@@@@@@@@@@@@@@@@@@@@@@@@@@@@@########################@@@@####@@",
"@@@@@@@@@@@@@@@@@@@@@@@@@@@@@@########################@@@@####@@",
"@@@@@@@@@@@@@@@@@@@@@@@@@@@@@@########################@@@@####@@",
"@@@@@@@@@@@@@@@@@@@@@@@@@@@@@@########################@@@@####@@",
"@@@@@@@@@@@@@@@@@@@@@@@@@@@@@@########################@@@@####@@",
"@@@@@@@@@@@@@@@@@@@@@@@@@@@@@@########################@@@@####@@",
"$$$$$$$$$$$$$$$$$$$$$$$$$$$$$$$$$$$$$$$$$$$$$$$$$$$$$$$$$$$$$$$$",
"$$$$$$$$$$$$$$$$$$$$$$$$$$$$$$$$$$$$$$$$$$$$$$$$$$$$$$$$$$$$$$$$",
"$$$$$$$$$$$$$$$$$$$$$$$$$$$$$$$$$$$$$$$$$$$$$$$$$$$$$$$$$$$$$$$$",
"$$$$$$$$$$$$$$$$$$$$$$$$$$$$$$$$$$$$$$$$$$$$$$$$$$$$$$$$$$$$$$$$"};
