/* XPM */
static char * Wall_DR_xpm[] = {
"64 64 3 1",
" 	c #56687E",
".	c #141412",
"+	c #24282C",
"            ....................................................",
"            ....................................................",
"            ....................................................",
"            ....................................................",
"        ++++....................................................",
"        ++++....................................................",
"        ++++....................................................",
"        ++++....................................................",
"++++++++++++....................................................",
"++++++++++++....................................................",
"++++++++++++....................................................",
"++++++++++++....................................................",
"++++++++++++....................................................",
"++++++++++++....................................................",
"++++++++++++....................................................",
"++++++++++++....................................................",
"++++++++........................................................",
"++++++++........................................................",
"++++++++........................................................",
"++++++++........................................................",
"................................................................",
"................................................................",
"................................................................",
"................................................................",
"................................................................",
"................................................................",
"................................................................",
"................................................................",
"................................................................",
"................................................................",
"................................................................",
"................................................................",
"................................................................",
"................................................................",
"................................................................",
"................................................................",
"................................................................",
"................................................................",
"................................................................",
"................................................................",
"................................................................",
"................................................................",
"................................................................",
"................................................................",
"................................................................",
"................................................................",
"................................................................",
"................................................................",
"................................................................",
"................................................................",
"................................................................",
"................................................................",
"................................................................",
"................................................................",
"................................................................",
"................................................................",
"................................................................",
"................................................................",
"................................................................",
"................................................................",
"................................................................",
"................................................................",
"................................................................",
"................................................................"};
