/* XPM */
static char * Wall_UR_xpm[] = {
"64 64 5 1",
" 	c #141412",
".	c #607897",
"+	c #2B3037",
"@	c #56687E",
"#	c #394554",
"                                                                ",
"                                                                ",
"                                                                ",
"                                                                ",
"                                                                ",
"                                                                ",
"                                                                ",
"                                                                ",
"                                                                ",
"                                                                ",
"                                                                ",
"                                                                ",
"                                                                ",
"                                                                ",
"                                                                ",
"                                                                ",
"                                                                ",
"                                                                ",
"                                                                ",
"                                                                ",
"                                                                ",
"                                                                ",
"                                                                ",
"                                                                ",
"                                                                ",
"                                                                ",
"                                                                ",
"                                                                ",
"                                                                ",
"                                                                ",
"                                                                ",
"                                                                ",
"                                                                ",
"                                                                ",
"                                                                ",
"                                                                ",
"                                                                ",
"                                                                ",
"                                                                ",
"                                                                ",
"                                                                ",
"                                                                ",
"                                                                ",
"                                                                ",
"....++++                                                        ",
"....++++                                                        ",
"....++++                                                        ",
"....++++                                                        ",
"....@@@@++++                                                    ",
"....@@@@++++                                                    ",
"....@@@@++++                                                    ",
"....@@@@++++                                                    ",
"@@@@@@@@@@@@                                                    ",
"@@@@@@@@@@@@                                                    ",
"@@@@@@@@@@@@                                                    ",
"@@@@@@@@@@@@                                                    ",
"####@@@@@@@@                                                    ",
"####@@@@@@@@                                                    ",
"####@@@@@@@@                                                    ",
"####@@@@@@@@                                                    ",
"####@@@@@@@@                                                    ",
"####@@@@@@@@                                                    ",
"####@@@@@@@@                                                    ",
"####@@@@@@@@                                                    "};
