/* XPM */
static char * Wall_DL_xpm[] = {
"64 64 3 1",
" 	c #141412",
".	c #56687E",
"+	c #24282C",
"                                                    ............",
"                                                    ............",
"                                                    ............",
"                                                    ............",
"                                                    ++++........",
"                                                    ++++........",
"                                                    ++++........",
"                                                    ++++........",
"                                                    ++++++++++++",
"                                                    ++++++++++++",
"                                                    ++++++++++++",
"                                                    ++++++++++++",
"                                                    ++++++++++++",
"                                                    ++++++++++++",
"                                                    ++++++++++++",
"                                                    ++++++++++++",
"                                                        ++++++++",
"                                                        ++++++++",
"                                                        ++++++++",
"                                                        ++++++++",
"                                                                ",
"                                                                ",
"                                                                ",
"                                                                ",
"                                                                ",
"                                                                ",
"                                                                ",
"                                                                ",
"                                                                ",
"                                                                ",
"                                                                ",
"                                                                ",
"                                                                ",
"                                                                ",
"                                                                ",
"                                                                ",
"                                                                ",
"                                                                ",
"                                                                ",
"                                                                ",
"                                                                ",
"                                                                ",
"                                                                ",
"                                                                ",
"                                                                ",
"                                                                ",
"                                                                ",
"                                                                ",
"                                                                ",
"                                                                ",
"                                                                ",
"                                                                ",
"                                                                ",
"                                                                ",
"                                                                ",
"                                                                ",
"                                                                ",
"                                                                ",
"                                                                ",
"                                                                ",
"                                                                ",
"                                                                ",
"                                                                ",
"                                                                "};
