/* XPM */
static char * Wall_L_xpm[] = {
"64 64 3 1",
" 	c #141412",
".	c #56687E",
"+	c #2B3037",
"                                                    ........++++",
"                                                    ........++++",
"                                                    ........++++",
"                                                    ........++++",
"                                                    ........++++",
"                                                    ........++++",
"                                                    ........++++",
"                                                    ........++++",
"                                                    ........++++",
"                                                    ........++++",
"                                                    ........++++",
"                                                    ........++++",
"                                                    ........++++",
"                                                    ........++++",
"                                                    ........++++",
"                                                    ........++++",
"                                                    ........++++",
"                                                    ........++++",
"                                                    ........++++",
"                                                    ........++++",
"                                                    ........++++",
"                                                    ........++++",
"                                                    ........++++",
"                                                    ........++++",
"                                                    ........++++",
"                                                    ........++++",
"                                                    ........++++",
"                                                    ........++++",
"                                                    ........++++",
"                                                    ........++++",
"                                                    ........++++",
"                                                    ........++++",
"                                                    ........++++",
"                                                    ........++++",
"                                                    ........++++",
"                                                    ........++++",
"                                                    ........++++",
"                                                    ........++++",
"                                                    ........++++",
"                                                    ........++++",
"                                                    ........++++",
"                                                    ........++++",
"                                                    ........++++",
"                                                    ........++++",
"                                                    ........++++",
"                                                    ........++++",
"                                                    ........++++",
"                                                    ........++++",
"                                                    ........++++",
"                                                    ........++++",
"                                                    ........++++",
"                                                    ........++++",
"                                                    ........++++",
"                                                    ........++++",
"                                                    ........++++",
"                                                    ........++++",
"                                                    ........++++",
"                                                    ........++++",
"                                                    ........++++",
"                                                    ........++++",
"                                                    ........++++",
"                                                    ........++++",
"                                                    ........++++",
"                                                    ........++++"};
