/* XPM */
static char * Wall_R_xpm[] = {
"64 64 3 1",
" 	c #2B3037",
".	c #56687E",
"+	c #141412",
"    ........++++++++++++++++++++++++++++++++++++++++++++++++++++",
"    ........++++++++++++++++++++++++++++++++++++++++++++++++++++",
"    ........++++++++++++++++++++++++++++++++++++++++++++++++++++",
"    ........++++++++++++++++++++++++++++++++++++++++++++++++++++",
"    ........++++++++++++++++++++++++++++++++++++++++++++++++++++",
"    ........++++++++++++++++++++++++++++++++++++++++++++++++++++",
"    ........++++++++++++++++++++++++++++++++++++++++++++++++++++",
"    ........++++++++++++++++++++++++++++++++++++++++++++++++++++",
"    ........++++++++++++++++++++++++++++++++++++++++++++++++++++",
"    ........++++++++++++++++++++++++++++++++++++++++++++++++++++",
"    ........++++++++++++++++++++++++++++++++++++++++++++++++++++",
"    ........++++++++++++++++++++++++++++++++++++++++++++++++++++",
"    ........++++++++++++++++++++++++++++++++++++++++++++++++++++",
"    ........++++++++++++++++++++++++++++++++++++++++++++++++++++",
"    ........++++++++++++++++++++++++++++++++++++++++++++++++++++",
"    ........++++++++++++++++++++++++++++++++++++++++++++++++++++",
"    ........++++++++++++++++++++++++++++++++++++++++++++++++++++",
"    ........++++++++++++++++++++++++++++++++++++++++++++++++++++",
"    ........++++++++++++++++++++++++++++++++++++++++++++++++++++",
"    ........++++++++++++++++++++++++++++++++++++++++++++++++++++",
"    ........++++++++++++++++++++++++++++++++++++++++++++++++++++",
"    ........++++++++++++++++++++++++++++++++++++++++++++++++++++",
"    ........++++++++++++++++++++++++++++++++++++++++++++++++++++",
"    ........++++++++++++++++++++++++++++++++++++++++++++++++++++",
"    ........++++++++++++++++++++++++++++++++++++++++++++++++++++",
"    ........++++++++++++++++++++++++++++++++++++++++++++++++++++",
"    ........++++++++++++++++++++++++++++++++++++++++++++++++++++",
"    ........++++++++++++++++++++++++++++++++++++++++++++++++++++",
"    ........++++++++++++++++++++++++++++++++++++++++++++++++++++",
"    ........++++++++++++++++++++++++++++++++++++++++++++++++++++",
"    ........++++++++++++++++++++++++++++++++++++++++++++++++++++",
"    ........++++++++++++++++++++++++++++++++++++++++++++++++++++",
"    ........++++++++++++++++++++++++++++++++++++++++++++++++++++",
"    ........++++++++++++++++++++++++++++++++++++++++++++++++++++",
"    ........++++++++++++++++++++++++++++++++++++++++++++++++++++",
"    ........++++++++++++++++++++++++++++++++++++++++++++++++++++",
"    ........++++++++++++++++++++++++++++++++++++++++++++++++++++",
"    ........++++++++++++++++++++++++++++++++++++++++++++++++++++",
"    ........++++++++++++++++++++++++++++++++++++++++++++++++++++",
"    ........++++++++++++++++++++++++++++++++++++++++++++++++++++",
"    ........++++++++++++++++++++++++++++++++++++++++++++++++++++",
"    ........++++++++++++++++++++++++++++++++++++++++++++++++++++",
"    ........++++++++++++++++++++++++++++++++++++++++++++++++++++",
"    ........++++++++++++++++++++++++++++++++++++++++++++++++++++",
"    ........++++++++++++++++++++++++++++++++++++++++++++++++++++",
"    ........++++++++++++++++++++++++++++++++++++++++++++++++++++",
"    ........++++++++++++++++++++++++++++++++++++++++++++++++++++",
"    ........++++++++++++++++++++++++++++++++++++++++++++++++++++",
"    ........++++++++++++++++++++++++++++++++++++++++++++++++++++",
"    ........++++++++++++++++++++++++++++++++++++++++++++++++++++",
"    ........++++++++++++++++++++++++++++++++++++++++++++++++++++",
"    ........++++++++++++++++++++++++++++++++++++++++++++++++++++",
"    ........++++++++++++++++++++++++++++++++++++++++++++++++++++",
"    ........++++++++++++++++++++++++++++++++++++++++++++++++++++",
"    ........++++++++++++++++++++++++++++++++++++++++++++++++++++",
"    ........++++++++++++++++++++++++++++++++++++++++++++++++++++",
"    ........++++++++++++++++++++++++++++++++++++++++++++++++++++",
"    ........++++++++++++++++++++++++++++++++++++++++++++++++++++",
"    ........++++++++++++++++++++++++++++++++++++++++++++++++++++",
"    ........++++++++++++++++++++++++++++++++++++++++++++++++++++",
"    ........++++++++++++++++++++++++++++++++++++++++++++++++++++",
"    ........++++++++++++++++++++++++++++++++++++++++++++++++++++",
"    ........++++++++++++++++++++++++++++++++++++++++++++++++++++",
"    ........++++++++++++++++++++++++++++++++++++++++++++++++++++"};
